<svg width="32" height="33" viewBox="0 0 32 33" fill="none" xmlns="http://www.w3.org/2000/svg">
<mask id="mask0_313_1631" style="mask-type:alpha" maskUnits="userSpaceOnUse" x="0" y="0" width="32" height="33">
<rect y="0.5" width="32" height="32" fill="#D9D9D9"/>
</mask>
<g mask="url(#mask0_313_1631)">
<path d="M23.9998 17.8333V15.1666H29.3332V17.8333H23.9998ZM25.5998 27.1666L21.3332 23.9666L22.9332 21.8333L27.1998 25.0333L25.5998 27.1666ZM22.9332 11.1666L21.3332 9.03325L25.5998 5.83325L27.1998 7.96659L22.9332 11.1666ZM6.6665 25.8333V20.4999H5.33317C4.59984 20.4999 3.97206 20.2388 3.44984 19.7166C2.92762 19.1944 2.6665 18.5666 2.6665 17.8333V15.1666C2.6665 14.4333 2.92762 13.8055 3.44984 13.2833C3.97206 12.761 4.59984 12.4999 5.33317 12.4999H10.6665L17.3332 8.49992V24.4999L10.6665 20.4999H9.33317V25.8333H6.6665ZM14.6665 19.7666V13.2333L11.3998 15.1666H5.33317V17.8333H11.3998L14.6665 19.7666ZM18.6665 20.9666V12.0333C19.2665 12.5666 19.7498 13.2166 20.1165 13.9833C20.4832 14.7499 20.6665 15.5888 20.6665 16.4999C20.6665 17.411 20.4832 18.2499 20.1165 19.0166C19.7498 19.7833 19.2665 20.4333 18.6665 20.9666Z" fill="#296088"/>
</g>
</svg>
