<svg width="40" height="48" viewBox="0 0 40 48" fill="none" xmlns="http://www.w3.org/2000/svg">
<path d="M24 14V0.92C25.8501 1.61867 27.5306 2.70262 28.93 4.1L35.898 11.072C37.297 12.4698 38.3818 14.1498 39.08 16H26C25.4696 16 24.9609 15.7893 24.5858 15.4142C24.2107 15.0391 24 14.5304 24 14ZM40 20.97V38C39.9968 40.6512 38.9422 43.1929 37.0676 45.0676C35.1929 46.9422 32.6512 47.9968 30 48H10C7.34881 47.9968 4.80712 46.9422 2.93244 45.0676C1.05776 43.1929 0.00317572 40.6512 0 38V10C0.00317572 7.34881 1.05776 4.80712 2.93244 2.93244C4.80712 1.05776 7.34881 0.00317572 10 0L19.03 0C19.356 0 19.678 0.026 20 0.048V14C20 15.5913 20.6321 17.1174 21.7574 18.2426C22.8826 19.3679 24.4087 20 26 20H39.952C39.974 20.322 40 20.644 40 20.97ZM24 38C24 37.4696 23.7893 36.9609 23.4142 36.5858C23.0391 36.2107 22.5304 36 22 36H12C11.4696 36 10.9609 36.2107 10.5858 36.5858C10.2107 36.9609 10 37.4696 10 38C10 38.5304 10.2107 39.0391 10.5858 39.4142C10.9609 39.7893 11.4696 40 12 40H22C22.5304 40 23.0391 39.7893 23.4142 39.4142C23.7893 39.0391 24 38.5304 24 38ZM30 30C30 29.4696 29.7893 28.9609 29.4142 28.5858C29.0391 28.2107 28.5304 28 28 28H12C11.4696 28 10.9609 28.2107 10.5858 28.5858C10.2107 28.9609 10 29.4696 10 30C10 30.5304 10.2107 31.0391 10.5858 31.4142C10.9609 31.7893 11.4696 32 12 32H28C28.5304 32 29.0391 31.7893 29.4142 31.4142C29.7893 31.0391 30 30.5304 30 30Z" fill="#296088"/>
</svg>
