<svg width="48" height="48" viewBox="0 0 48 48" fill="none" xmlns="http://www.w3.org/2000/svg">
<path d="M34 0H14C8.486 0 4 4.486 4 10V38C4 43.514 8.486 48 14 48H34C39.514 48 44 43.514 44 38V10C44 4.486 39.514 0 34 0ZM20 38C20 38.5304 19.7893 39.0391 19.4142 39.4142C19.0391 39.7893 18.5304 40 18 40H14C13.4696 40 12.9609 39.7893 12.5858 39.4142C12.2107 39.0391 12 38.5304 12 38V34C12 33.4696 12.2107 32.9609 12.5858 32.5858C12.9609 32.2107 13.4696 32 14 32H18C18.5304 32 19.0391 32.2107 19.4142 32.5858C19.7893 32.9609 20 33.4696 20 34V38ZM20 26C20 26.5304 19.7893 27.0391 19.4142 27.4142C19.0391 27.7893 18.5304 28 18 28H14C13.4696 28 12.9609 27.7893 12.5858 27.4142C12.2107 27.0391 12 26.5304 12 26V22C12 21.4696 12.2107 20.9609 12.5858 20.5858C12.9609 20.2107 13.4696 20 14 20H18C18.5304 20 19.0391 20.2107 19.4142 20.5858C19.7893 20.9609 20 21.4696 20 22V26ZM20 14C20 14.5304 19.7893 15.0391 19.4142 15.4142C19.0391 15.7893 18.5304 16 18 16H14C13.4696 16 12.9609 15.7893 12.5858 15.4142C12.2107 15.0391 12 14.5304 12 14V10C12 9.46957 12.2107 8.96086 12.5858 8.58579C12.9609 8.21071 13.4696 8 14 8H18C18.5304 8 19.0391 8.21071 19.4142 8.58579C19.7893 8.96086 20 9.46957 20 10V14ZM34 38H26C23.384 37.988 23.386 34.012 26 34H34C36.616 34.012 36.614 37.988 34 38ZM34 26H26C23.384 25.988 23.386 22.012 26 22H34C36.616 22.012 36.614 25.988 34 26ZM34 14H26C23.384 13.988 23.386 10.012 26 10H34C36.616 10.012 36.614 13.988 34 14Z" fill="#296088"/>
</svg>
